<?xml version="1.0" encoding="UTF-8"?>
<svg version="1.1" xmlns="http://www.w3.org/2000/svg" width="50" height="50">
<path d="M0 0 C2.97 0 5.94 0 9 0 C15.32185629 25.01122754 15.32185629 25.01122754 15 30 C15.804375 30.144375 16.60875 30.28875 17.4375 30.4375 C20 31 20 31 21 32 C21.27314815 37.73611111 21.27314815 37.73611111 21 40 C19 42 19 42 17.125 42.265625 C16.42375 42.26046875 15.7225 42.2553125 15 42.25 C14.29875 42.25515625 13.5975 42.2603125 12.875 42.265625 C11 42 11 42 9 40 C8.375 37.375 8.375 37.375 8 35 C7.34 35.99 6.68 36.98 6 38 C4.02880859 38.34057617 4.02880859 38.34057617 1.6484375 38.29296875 C0.79765625 38.28330078 -0.053125 38.27363281 -0.9296875 38.26367188 C-1.81914062 38.23853516 -2.70859375 38.21339844 -3.625 38.1875 C-4.5221875 38.17396484 -5.419375 38.16042969 -6.34375 38.14648438 C-8.56309789 38.11106925 -10.78125188 38.06168461 -13 38 C-13.66 39.32 -14.32 40.64 -15 42 C-21.0546875 42.1953125 -21.0546875 42.1953125 -23 42 C-25 40 -25 40 -25.265625 38.125 C-25.26046875 37.42375 -25.2553125 36.7225 -25.25 36 C-25.25515625 35.29875 -25.2603125 34.5975 -25.265625 33.875 C-25 32 -25 32 -23 30 C-23.66 29.67 -24.32 29.34 -25 29 C-24.505 27.515 -24.505 27.515 -24 26 C-22.43997572 25.8636872 -20.87642824 25.76740874 -19.3125 25.6875 C-18.44238281 25.62949219 -17.57226562 25.57148438 -16.67578125 25.51171875 C-14 26 -14 26 -11.640625 28.4765625 C-8.17187179 31.79137695 -6.16690579 31.70158959 -1.4375 31.6875 C-0.13683594 31.71199219 1.16382813 31.73648438 2.50390625 31.76171875 C6.21837608 31.31590124 6.21837608 31.31590124 8.46875 28.17578125 C10.46358585 24.03853242 9.96865692 21.30514186 9 17 C8.7525 15.80375 8.505 14.6075 8.25 13.375 C7.52367018 9.91096546 6.7713819 6.45423842 6 3 C3.03 2.505 3.03 2.505 0 2 C0 1.34 0 0.68 0 0 Z M-21 33 C-21.33 34.65 -21.66 36.3 -22 38 C-19.525 38.495 -19.525 38.495 -17 39 C-16.67 37.35 -16.34 35.7 -16 34 C-17.65 33.67 -19.3 33.34 -21 33 Z M-13 34 C-13 34.66 -13 35.32 -13 36 C-7.72 36 -2.44 36 3 36 C3.33 35.34 3.66 34.68 4 34 C-1.61 34 -7.22 34 -13 34 Z M12 34 C13 38 13 38 13 38 Z M17 34 C18 38 18 38 18 38 Z M13 38 C17 39 17 39 17 39 Z " fill="#3FC056" transform="translate(27,4)"/>
<path d="M0 0 C1.32 0 2.64 0 4 0 C4 1.32 4 2.64 4 4 C2.68 4 1.36 4 0 4 C0 2.68 0 1.36 0 0 Z " fill="#3FBF56" transform="translate(6,38)"/>
</svg>
