<svg width="196" height="82" viewBox="0 0 196 82" fill="none" xmlns="http://www.w3.org/2000/svg">
<path d="M75.2577 1.4015C69.7115 2.17557 65.8442 7.30306 66.6191 12.855C67.125 16.4801 69.4911 19.3792 72.6122 20.7464L72.0142 26.3612L59.3945 11.8137L34.0039 15.3575C32.4333 10.8996 27.8993 8.01125 23.0416 8.68923C17.4954 9.4633 13.6281 14.5908 14.403 20.1427C15.1778 25.6946 20.3013 29.5673 25.8475 28.7932C30.7052 28.1152 34.2751 24.0958 34.565 19.3783L57.7771 16.1386L71.4275 31.8744L70.9781 36.0953L71.9858 36.203L68.2273 71.5086L82.715 73.0586L83.145 69.0216L72.6903 67.9032L76.0195 36.6337L77.0272 36.7415L78.6618 21.3908C83.8814 20.3426 87.4487 15.4005 86.7022 10.052C85.9273 4.50009 80.8038 0.627433 75.2577 1.4015ZM25.0057 22.762C22.7909 23.0711 20.7373 21.5189 20.4279 19.3018C20.1185 17.0847 21.6686 15.0295 23.8833 14.7204C25.3631 14.5139 26.7581 15.1497 27.6214 16.2483L24.1639 16.7308L24.7251 20.7516L28.1834 20.2689C27.653 21.562 26.4854 22.5555 25.0057 22.762ZM78.3074 15.1432L78.6775 11.6688L74.6436 11.2374L74.272 14.7243C73.4165 14.0985 72.801 13.1448 72.6431 12.0134C72.3337 9.79633 73.8838 7.74112 76.0985 7.43201C78.3133 7.1229 80.3669 8.67514 80.6763 10.8922C80.9325 12.7216 79.9121 14.4241 78.3074 15.1432Z" fill="black"/>
<path d="M19.7352 71.18C18.4152 71.18 17.3112 70.628 16.4232 69.524C15.5352 68.42 15.0912 66.908 15.0912 64.988C15.0912 64.004 15.1992 62.9 15.4152 61.676C15.6312 60.428 15.8832 59.168 16.1712 57.896C16.4592 56.624 16.7112 55.436 16.9272 54.332C17.1432 53.204 17.2512 52.268 17.2512 51.524C17.2512 50.996 17.1792 50.588 17.0352 50.3C16.8912 49.988 16.6272 49.832 16.2432 49.832C15.9552 49.832 15.6192 49.964 15.2352 50.228C14.8512 50.492 14.5632 51.008 14.3712 51.776L14.0112 51.632C14.0112 49.568 14.4792 47.936 15.4152 46.736C16.3752 45.536 17.6592 44.936 19.2672 44.936C20.7792 44.936 21.8232 45.428 22.3992 46.412C22.9992 47.396 23.2992 48.632 23.2992 50.12C23.2992 51.224 23.1792 52.4 22.9392 53.648C22.7232 54.896 22.4712 56.144 22.1832 57.392C21.8952 58.616 21.6312 59.756 21.3912 60.812C21.1752 61.868 21.0672 62.744 21.0672 63.44C21.0672 64.472 21.3312 64.988 21.8592 64.988C22.1712 64.988 22.5912 64.772 23.1192 64.34C23.6472 63.884 24.1992 63.272 24.7752 62.504C25.3752 61.712 25.9512 60.824 26.5032 59.84C27.0552 58.832 27.5232 57.776 27.9072 56.672C27.8592 56.144 27.8232 55.64 27.7992 55.16C27.7752 54.656 27.7632 54.212 27.7632 53.828C27.7632 51.908 27.9432 50.36 28.3032 49.184C28.6872 48.008 29.1672 47.144 29.7432 46.592C30.3192 46.04 30.9072 45.764 31.5072 45.764C32.3472 45.764 33.1032 46.232 33.7752 47.168C34.4472 48.08 34.7832 49.328 34.7832 50.912C34.7832 51.896 34.6032 53 34.2432 54.224C33.8832 55.424 33.2832 56.708 32.4432 58.076C32.3712 60.14 32.5992 61.808 33.1272 63.08C33.6552 64.352 34.3152 64.988 35.1072 64.988C35.6112 64.988 36.1512 64.736 36.7272 64.232C37.3272 63.704 37.8792 62.984 38.3832 62.072C38.8872 61.136 39.2952 60.056 39.6072 58.832C39.9432 57.608 40.1112 56.3 40.1112 54.908C40.1112 54.092 40.0512 53.24 39.9312 52.352C39.8352 51.464 39.7032 50.612 39.5352 49.796C39.3912 48.98 39.2352 48.308 39.0672 47.78C39.0672 47.372 39.2352 46.964 39.5712 46.556C39.9312 46.124 40.3872 45.764 40.9392 45.476C41.4912 45.164 42.0552 45.008 42.6312 45.008C43.2072 45.008 43.7592 45.212 44.2872 45.62C44.8152 46.028 45.2472 46.748 45.5832 47.78C45.9192 48.788 46.0872 50.228 46.0872 52.1C46.0872 54.716 45.7512 57.176 45.0792 59.48C44.4072 61.76 43.4952 63.776 42.3432 65.528C41.2152 67.28 39.9672 68.66 38.5992 69.668C37.2312 70.652 35.8392 71.144 34.4232 71.144C33.1752 71.144 32.1432 70.76 31.3272 69.992C30.5112 69.224 29.8752 68.192 29.4192 66.896C28.9632 65.6 28.6392 64.16 28.4472 62.576C27.5832 64.64 26.6472 66.308 25.6392 67.58C24.6312 68.828 23.6232 69.74 22.6152 70.316C21.6072 70.892 20.6472 71.18 19.7352 71.18ZM54.6833 71.252C52.9313 71.252 51.4793 70.904 50.3273 70.208C49.1753 69.488 48.3113 68.552 47.7353 67.4C47.1593 66.224 46.8713 64.964 46.8713 63.62C46.8713 62.348 47.1113 61.076 47.5913 59.804C48.0953 58.508 48.8153 57.332 49.7513 56.276C50.7113 55.22 51.8633 54.368 53.2073 53.72C54.5753 53.072 56.1113 52.748 57.8153 52.748C59.9273 52.748 61.4633 53.228 62.4233 54.188C63.4073 55.124 63.8993 56.264 63.8993 57.608C63.8993 58.76 63.5873 59.828 62.9633 60.812C62.3633 61.772 61.5593 62.552 60.5513 63.152C59.5433 63.728 58.4393 64.016 57.2393 64.016C56.6153 64.016 55.9793 63.92 55.3313 63.728C54.6833 63.536 54.0473 63.236 53.4233 62.828C53.5433 64.316 53.9753 65.396 54.7193 66.068C55.4633 66.74 56.3513 67.076 57.3833 67.076C58.1033 67.076 58.8233 66.944 59.5433 66.68C60.2633 66.392 60.9233 66.032 61.5233 65.6C62.1473 65.144 62.6273 64.664 62.9633 64.16L63.2153 64.34C63.2153 65.588 62.9513 66.656 62.4233 67.544C61.9193 68.408 61.2473 69.116 60.4073 69.668C59.5673 70.22 58.6433 70.628 57.6353 70.892C56.6513 71.132 55.6673 71.252 54.6833 71.252ZM55.5113 61.532C56.2793 61.532 56.9033 61.316 57.3833 60.884C57.8633 60.428 58.2233 59.9 58.4633 59.3C58.7033 58.7 58.8233 58.172 58.8233 57.716C58.8233 57.164 58.6673 56.708 58.3553 56.348C58.0433 55.964 57.6113 55.772 57.0593 55.772C56.6273 55.772 56.1473 55.928 55.6193 56.24C55.1153 56.552 54.6593 57.092 54.2513 57.86C53.8433 58.604 53.5793 59.648 53.4593 60.992C54.2273 61.352 54.9113 61.532 55.5113 61.532ZM92.071 71.252C90.487 71.252 89.143 70.892 88.039 70.172C86.959 69.452 86.143 68.516 85.591 67.364C85.039 66.188 84.763 64.928 84.763 63.584C84.763 62.312 85.003 61.04 85.483 59.768C85.987 58.496 86.719 57.332 87.679 56.276C88.639 55.196 89.803 54.344 91.171 53.72C92.563 53.072 94.159 52.748 95.959 52.748C97.735 52.748 99.055 53.108 99.919 53.828C100.783 54.524 101.215 55.292 101.215 56.132C101.215 57.02 100.771 57.836 99.883 58.58C98.995 59.324 97.699 59.696 95.995 59.696C96.091 59.336 96.163 58.976 96.211 58.616C96.283 58.232 96.319 57.872 96.319 57.536C96.319 57.032 96.211 56.612 95.995 56.276C95.779 55.916 95.395 55.736 94.843 55.736C94.339 55.736 93.799 55.964 93.223 56.42C92.671 56.876 92.191 57.548 91.783 58.436C91.399 59.324 91.207 60.416 91.207 61.712C91.207 62.984 91.411 64.016 91.819 64.808C92.251 65.6 92.803 66.176 93.475 66.536C94.147 66.872 94.855 67.04 95.599 67.04C96.583 67.04 97.531 66.788 98.443 66.284C99.355 65.756 100.015 65.036 100.423 64.124L100.783 64.268C100.783 65.516 100.495 66.584 99.919 67.472C99.367 68.336 98.647 69.056 97.759 69.632C96.871 70.184 95.923 70.592 94.915 70.856C93.907 71.12 92.959 71.252 92.071 71.252ZM110.584 71.252C108.784 71.252 107.296 70.892 106.12 70.172C104.944 69.452 104.068 68.504 103.492 67.328C102.94 66.128 102.664 64.856 102.664 63.512C102.664 62.24 102.892 60.968 103.348 59.696C103.828 58.424 104.512 57.272 105.4 56.24C106.312 55.184 107.416 54.344 108.712 53.72C110.008 53.072 111.496 52.748 113.176 52.748C114.976 52.748 116.452 53.12 117.604 53.864C118.78 54.584 119.644 55.544 120.196 56.744C120.772 57.944 121.06 59.228 121.06 60.596C121.06 61.844 120.832 63.104 120.376 64.376C119.92 65.624 119.236 66.776 118.324 67.832C117.436 68.864 116.344 69.692 115.048 70.316C113.752 70.94 112.264 71.252 110.584 71.252ZM111.556 68.192C112.204 68.192 112.744 67.856 113.176 67.184C113.608 66.512 113.932 65.66 114.148 64.628C114.364 63.572 114.472 62.504 114.472 61.424C114.472 60.464 114.376 59.564 114.184 58.724C114.016 57.86 113.752 57.164 113.392 56.636C113.032 56.084 112.564 55.808 111.988 55.808C111.364 55.808 110.824 56.144 110.368 56.816C109.936 57.488 109.612 58.34 109.396 59.372C109.18 60.404 109.072 61.472 109.072 62.576C109.072 63.536 109.156 64.448 109.324 65.312C109.516 66.152 109.792 66.848 110.152 67.4C110.512 67.928 110.98 68.192 111.556 68.192ZM127.191 71.144C126.327 71.144 125.547 70.796 124.851 70.1C124.179 69.38 123.843 68.396 123.843 67.148C123.843 66.524 123.927 65.816 124.095 65.024C124.263 64.208 124.443 63.38 124.635 62.54C124.851 61.7 125.043 60.908 125.211 60.164C125.379 59.42 125.463 58.796 125.463 58.292C125.463 57.884 125.367 57.56 125.175 57.32C124.983 57.056 124.731 56.924 124.419 56.924C124.011 56.924 123.567 57.164 123.087 57.644L122.871 57.5C122.847 57.116 122.931 56.66 123.123 56.132C123.315 55.604 123.627 55.1 124.059 54.62C124.491 54.116 125.055 53.696 125.751 53.36C126.447 53.024 127.275 52.856 128.235 52.856C129.315 52.856 130.119 53.24 130.647 54.008C131.199 54.752 131.475 55.652 131.475 56.708C131.475 56.828 131.475 56.96 131.475 57.104C131.475 57.224 131.463 57.344 131.439 57.464C131.895 56.72 132.423 56 133.023 55.304C133.647 54.608 134.343 54.032 135.111 53.576C135.903 53.096 136.755 52.856 137.667 52.856C138.843 52.856 139.659 53.24 140.115 54.008C140.571 54.752 140.799 55.604 140.799 56.564C140.799 56.756 140.787 56.948 140.763 57.14C140.763 57.308 140.751 57.476 140.727 57.644C141.231 56.9 141.783 56.168 142.383 55.448C143.007 54.704 143.715 54.092 144.507 53.612C145.299 53.108 146.211 52.856 147.243 52.856C148.515 52.856 149.379 53.228 149.835 53.972C150.315 54.716 150.555 55.592 150.555 56.6C150.555 57.488 150.447 58.508 150.231 59.66C150.015 60.788 149.799 61.904 149.583 63.008C149.367 64.112 149.259 65.048 149.259 65.816C149.259 66.272 149.319 66.644 149.439 66.932C149.583 67.22 149.811 67.364 150.123 67.364C150.387 67.364 150.627 67.292 150.843 67.148C151.083 66.98 151.251 66.788 151.347 66.572L151.635 66.68C151.635 67.568 151.383 68.348 150.879 69.02C150.375 69.692 149.739 70.22 148.971 70.604C148.203 70.964 147.435 71.144 146.667 71.144C145.731 71.144 144.903 70.832 144.183 70.208C143.487 69.584 143.139 68.552 143.139 67.112C143.139 66.224 143.247 65.264 143.463 64.232C143.703 63.2 143.931 62.204 144.147 61.244C144.387 60.26 144.507 59.456 144.507 58.832C144.507 57.944 144.195 57.5 143.571 57.5C143.115 57.5 142.659 57.692 142.203 58.076C141.771 58.436 141.375 58.928 141.015 59.552C140.679 60.152 140.403 60.788 140.187 61.46C139.971 62.132 139.863 62.78 139.863 63.404C139.863 63.98 139.923 64.616 140.043 65.312C140.187 65.984 140.259 66.632 140.259 67.256C140.259 68.504 139.911 69.464 139.215 70.136C138.519 70.808 137.703 71.144 136.767 71.144C135.903 71.144 135.123 70.856 134.427 70.28C133.755 69.704 133.419 68.84 133.419 67.688C133.419 67.16 133.491 66.524 133.635 65.78C133.779 65.012 133.935 64.22 134.103 63.404C134.295 62.564 134.463 61.76 134.607 60.992C134.751 60.224 134.823 59.552 134.823 58.976C134.823 58.52 134.751 58.16 134.607 57.896C134.487 57.632 134.235 57.5 133.851 57.5C133.299 57.5 132.771 57.776 132.267 58.328C131.763 58.88 131.331 59.552 130.971 60.344C130.611 61.112 130.371 61.856 130.251 62.576C130.227 62.744 130.203 62.876 130.179 62.972C130.179 63.068 130.179 63.116 130.179 63.116C130.179 63.86 130.263 64.544 130.431 65.168C130.599 65.768 130.683 66.392 130.683 67.04C130.683 68.216 130.323 69.2 129.603 69.992C128.907 70.76 128.103 71.144 127.191 71.144ZM161.031 71.252C159.279 71.252 157.827 70.904 156.675 70.208C155.523 69.488 154.659 68.552 154.083 67.4C153.507 66.224 153.219 64.964 153.219 63.62C153.219 62.348 153.459 61.076 153.939 59.804C154.443 58.508 155.163 57.332 156.099 56.276C157.059 55.22 158.211 54.368 159.555 53.72C160.923 53.072 162.459 52.748 164.163 52.748C166.275 52.748 167.811 53.228 168.771 54.188C169.755 55.124 170.247 56.264 170.247 57.608C170.247 58.76 169.935 59.828 169.311 60.812C168.711 61.772 167.907 62.552 166.899 63.152C165.891 63.728 164.787 64.016 163.587 64.016C162.963 64.016 162.327 63.92 161.679 63.728C161.031 63.536 160.395 63.236 159.771 62.828C159.891 64.316 160.323 65.396 161.067 66.068C161.811 66.74 162.699 67.076 163.731 67.076C164.451 67.076 165.171 66.944 165.891 66.68C166.611 66.392 167.271 66.032 167.871 65.6C168.495 65.144 168.975 64.664 169.311 64.16L169.563 64.34C169.563 65.588 169.299 66.656 168.771 67.544C168.267 68.408 167.595 69.116 166.755 69.668C165.915 70.22 164.991 70.628 163.983 70.892C162.999 71.132 162.015 71.252 161.031 71.252ZM161.859 61.532C162.627 61.532 163.251 61.316 163.731 60.884C164.211 60.428 164.571 59.9 164.811 59.3C165.051 58.7 165.171 58.172 165.171 57.716C165.171 57.164 165.015 56.708 164.703 56.348C164.391 55.964 163.959 55.772 163.407 55.772C162.975 55.772 162.495 55.928 161.967 56.24C161.463 56.552 161.007 57.092 160.599 57.86C160.191 58.604 159.927 59.648 159.807 60.992C160.575 61.352 161.259 61.532 161.859 61.532ZM176.01 62.792C175.482 62.792 175.002 62.696 174.57 62.504C174.162 62.288 173.922 61.94 173.85 61.46C173.898 60.404 173.994 59.204 174.138 57.86C174.306 56.492 174.498 55.1 174.714 53.684C174.93 52.268 175.146 50.912 175.362 49.616C175.578 48.32 175.77 47.192 175.938 46.232C176.106 45.248 176.226 44.54 176.298 44.108C176.37 43.724 176.694 43.4 177.27 43.136C177.846 42.872 178.506 42.74 179.25 42.74C180.066 42.74 180.858 42.944 181.626 43.352C182.418 43.76 182.97 44.48 183.282 45.512C182.946 46.04 182.526 46.88 182.022 48.032C181.518 49.184 181.014 50.528 180.51 52.064C180.006 53.576 179.574 55.196 179.214 56.924C178.854 58.628 178.638 60.332 178.566 62.036C178.302 62.252 177.93 62.432 177.45 62.576C176.97 62.72 176.49 62.792 176.01 62.792ZM175.47 71.216C174.462 71.216 173.634 70.904 172.986 70.28C172.338 69.656 172.014 68.876 172.014 67.94C172.014 66.932 172.386 66.068 173.13 65.348C173.898 64.604 174.822 64.232 175.902 64.232C176.91 64.232 177.738 64.556 178.386 65.204C179.058 65.828 179.394 66.608 179.394 67.544C179.394 68.552 179.01 69.416 178.242 70.136C177.474 70.856 176.55 71.216 175.47 71.216Z" fill="black"/>
</svg>
